<?xml version="1.0" encoding="UTF-8"?>
<!-- Icon sprite. Each <symbol> uses viewBox="0 0 24 24" so <use> scales
     via the referencing element's width/height. Paths derived from
     Lucide (MIT license); adapted for this project. -->
<svg xmlns="http://www.w3.org/2000/svg" style="display:none" aria-hidden="true">

<symbol id="calendar" viewBox="0 0 24 24" fill="none" stroke="currentColor" stroke-width="1.75" stroke-linecap="round" stroke-linejoin="round">
  <rect x="3" y="4" width="18" height="18" rx="2"/>
  <path d="M16 2v4M8 2v4M3 10h18"/>
</symbol>

<symbol id="trending-up" viewBox="0 0 24 24" fill="none" stroke="currentColor" stroke-width="1.75" stroke-linecap="round" stroke-linejoin="round">
  <path d="M3 17l6-6 4 4 8-8"/>
  <path d="M14 7h7v7"/>
</symbol>

<symbol id="clock" viewBox="0 0 24 24" fill="none" stroke="currentColor" stroke-width="1.75" stroke-linecap="round" stroke-linejoin="round">
  <circle cx="12" cy="12" r="9"/>
  <path d="M12 7v5l3 2"/>
</symbol>

<symbol id="chevron-down" viewBox="0 0 24 24" fill="none" stroke="currentColor" stroke-width="1.75" stroke-linecap="round" stroke-linejoin="round">
  <polyline points="6 9 12 15 18 9"/>
</symbol>

<symbol id="chevron-up" viewBox="0 0 24 24" fill="none" stroke="currentColor" stroke-width="1.75" stroke-linecap="round" stroke-linejoin="round">
  <polyline points="6 15 12 9 18 15"/>
</symbol>

<symbol id="dollar" viewBox="0 0 24 24" fill="none" stroke="currentColor" stroke-width="1.75" stroke-linecap="round" stroke-linejoin="round">
  <circle cx="12" cy="12" r="9"/>
  <path d="M16 8h-6a2 2 0 1 0 0 4h4a2 2 0 1 1 0 4H8"/>
  <path d="M12 7v10"/>
</symbol>

<symbol id="refresh" viewBox="0 0 24 24" fill="none" stroke="currentColor" stroke-width="1.75" stroke-linecap="round" stroke-linejoin="round">
  <path d="M21 12a9 9 0 11-3-6.7L21 8"/>
  <path d="M21 3v5h-5"/>
</symbol>

<symbol id="flame" viewBox="0 0 24 24" fill="none" stroke="currentColor" stroke-width="1.75" stroke-linecap="round" stroke-linejoin="round">
  <path d="M12 2c1 3 4 4 4 8a4 4 0 11-8 0c0-2 2-3 2-5 2 1 2 3 2 3z"/>
</symbol>

<symbol id="crystal-ball" viewBox="0 0 24 24" fill="none" stroke="currentColor" stroke-width="1.75" stroke-linecap="round" stroke-linejoin="round">
  <circle cx="12" cy="13" r="7"/>
  <path d="M12 2v2M4 6l1.5 1.5M20 6l-1.5 1.5M5 20l2-1"/>
</symbol>

<symbol id="warn-triangle" viewBox="0 0 24 24" fill="none" stroke="currentColor" stroke-width="2.4" stroke-linecap="round" stroke-linejoin="round">
  <path d="M12 3L2 20h20L12 3z"/>
  <path d="M12 10v5M12 18.5v.1"/>
</symbol>

<symbol id="bar-chart" viewBox="0 0 24 24" fill="none" stroke="currentColor" stroke-width="1.75" stroke-linecap="round" stroke-linejoin="round">
  <rect x="3" y="11" width="4" height="10"/>
  <rect x="10" y="6" width="4" height="15"/>
  <rect x="17" y="3" width="4" height="18"/>
</symbol>

<symbol id="sort-updown" viewBox="0 0 24 24" fill="none" stroke="currentColor" stroke-width="1.75" stroke-linecap="round" stroke-linejoin="round">
  <path d="M7 3v18M3 7l4-4 4 4M17 21V3M21 17l-4 4-4-4"/>
</symbol>

<symbol id="funnel" viewBox="0 0 24 24" fill="none" stroke="currentColor" stroke-width="1.75" stroke-linecap="round" stroke-linejoin="round">
  <path d="M3 4h18l-7 9v7l-4-2v-5z"/>
</symbol>

<symbol id="magnifier" viewBox="0 0 24 24" fill="none" stroke="currentColor" stroke-width="1.75" stroke-linecap="round" stroke-linejoin="round">
  <circle cx="11" cy="11" r="6"/>
  <line x1="16" y1="16" x2="21" y2="21"/>
</symbol>

<symbol id="folder" viewBox="0 0 24 24" fill="none" stroke="currentColor" stroke-width="1.75" stroke-linecap="round" stroke-linejoin="round">
  <path d="M3 7a2 2 0 0 1 2-2h4l2 3h8a2 2 0 0 1 2 2v8a2 2 0 0 1-2 2H5a2 2 0 0 1-2-2z"/>
</symbol>

<symbol id="hash" viewBox="0 0 24 24" fill="none" stroke="currentColor" stroke-width="1.75" stroke-linecap="round" stroke-linejoin="round">
  <line x1="4" y1="9" x2="20" y2="9"/>
  <line x1="4" y1="15" x2="20" y2="15"/>
  <line x1="10" y1="3" x2="8" y2="21"/>
  <line x1="16" y1="3" x2="14" y2="21"/>
</symbol>

<symbol id="sparkles" viewBox="0 0 24 24" fill="none" stroke="currentColor" stroke-width="1.75" stroke-linecap="round" stroke-linejoin="round">
  <path d="M12 3l1.6 4.4L18 9l-4.4 1.6L12 15l-1.6-4.4L6 9l4.4-1.6z"/>
  <path d="M19 15l.9 2.1L22 18l-2.1.9L19 21l-.9-2.1L16 18l2.1-.9z"/>
  <path d="M5 3l.6 1.5L7 5l-1.4.5L5 7l-.6-1.5L3 5l1.4-.5z"/>
</symbol>

<symbol id="pie-chart" viewBox="0 0 24 24" fill="none" stroke="currentColor" stroke-width="1.75" stroke-linecap="round" stroke-linejoin="round">
  <path d="M21.21 15.89A10 10 0 1 1 8 2.83"/>
  <path d="M22 12A10 10 0 0 0 12 2v10z"/>
</symbol>

<symbol id="file-text" viewBox="0 0 24 24" fill="none" stroke="currentColor" stroke-width="1.75" stroke-linecap="round" stroke-linejoin="round">
  <path d="M14 2H6a2 2 0 0 0-2 2v16a2 2 0 0 0 2 2h12a2 2 0 0 0 2-2V8z"/>
  <polyline points="14 2 14 8 20 8"/>
  <line x1="16" y1="13" x2="8" y2="13"/>
  <line x1="16" y1="17" x2="8" y2="17"/>
  <polyline points="10 9 9 9 8 9"/>
</symbol>

<symbol id="gauge" viewBox="0 0 24 24" fill="none" stroke="currentColor" stroke-width="1.75" stroke-linecap="round" stroke-linejoin="round">
  <path d="M12 14l4-4"/>
  <path d="M3.34 19a10 10 0 1 1 17.32 0"/>
</symbol>

<symbol id="zap" viewBox="0 0 24 24" fill="none" stroke="currentColor" stroke-width="1.75" stroke-linecap="round" stroke-linejoin="round">
  <polygon points="13 2 3 14 12 14 11 22 21 10 12 10 13 2"/>
</symbol>

<symbol id="activity" viewBox="0 0 24 24" fill="none" stroke="currentColor" stroke-width="1.75" stroke-linecap="round" stroke-linejoin="round">
  <polyline points="22 12 18 12 15 21 9 3 6 12 2 12"/>
</symbol>

<symbol id="trending-down" viewBox="0 0 24 24" fill="none" stroke="currentColor" stroke-width="1.75" stroke-linecap="round" stroke-linejoin="round">
  <polyline points="22 17 13.5 8.5 8.5 13.5 2 7"/>
  <polyline points="16 17 22 17 22 11"/>
</symbol>

<symbol id="minus" viewBox="0 0 24 24" fill="none" stroke="currentColor" stroke-width="1.75" stroke-linecap="round" stroke-linejoin="round">
  <line x1="5" y1="12" x2="19" y2="12"/>
</symbol>

<symbol id="layers" viewBox="0 0 24 24" fill="none" stroke="currentColor" stroke-width="1.75" stroke-linecap="round" stroke-linejoin="round">
  <polygon points="12 2 2 7 12 12 22 7 12 2"></polygon>
  <polyline points="2 17 12 22 22 17"></polyline>
  <polyline points="2 12 12 17 22 12"></polyline>
</symbol>

<symbol id="grid" viewBox="0 0 24 24" fill="none" stroke="currentColor" stroke-width="1.75" stroke-linecap="round" stroke-linejoin="round">
  <rect x="3" y="3" width="7" height="7"></rect>
  <rect x="14" y="3" width="7" height="7"></rect>
  <rect x="14" y="14" width="7" height="7"></rect>
  <rect x="3" y="14" width="7" height="7"></rect>
</symbol>

<symbol id="bell" viewBox="0 0 24 24" fill="none" stroke="currentColor" stroke-width="1.75" stroke-linecap="round" stroke-linejoin="round">
  <path d="M6 8a6 6 0 0 1 12 0c0 7 3 9 3 9H3s3-2 3-9"></path>
  <path d="M10.3 21a1.94 1.94 0 0 0 3.4 0"></path>
</symbol>

<symbol id="settings" viewBox="0 0 24 24" fill="none" stroke="currentColor" stroke-width="1.75" stroke-linecap="round" stroke-linejoin="round">
  <path d="M12.22 2h-.44a2 2 0 0 0-2 2v.18a2 2 0 0 1-1 1.73l-.43.25a2 2 0 0 1-2 0l-.15-.08a2 2 0 0 0-2.73.73l-.22.38a2 2 0 0 0 .73 2.73l.15.1a2 2 0 0 1 1 1.72v.51a2 2 0 0 1-1 1.74l-.15.09a2 2 0 0 0-.73 2.73l.22.38a2 2 0 0 0 2.73.73l.15-.08a2 2 0 0 1 2 0l.43.25a2 2 0 0 1 1 1.73V20a2 2 0 0 0 2 2h.44a2 2 0 0 0 2-2v-.18a2 2 0 0 1 1-1.73l.43-.25a2 2 0 0 1 2 0l.15.08a2 2 0 0 0 2.73-.73l.22-.39a2 2 0 0 0-.73-2.73l-.15-.08a2 2 0 0 1-1-1.74v-.5a2 2 0 0 1 1-1.74l.15-.09a2 2 0 0 0 .73-2.73l-.22-.38a2 2 0 0 0-2.73-.73l-.15.08a2 2 0 0 1-2 0l-.43-.25a2 2 0 0 1-1-1.73V4a2 2 0 0 0-2-2z"/>
  <circle cx="12" cy="12" r="3"/>
</symbol>

<symbol id="help-circle" viewBox="0 0 24 24" fill="none" stroke="currentColor" stroke-width="1.75" stroke-linecap="round" stroke-linejoin="round">
  <circle cx="12" cy="12" r="10"/>
  <path d="M9.09 9a3 3 0 0 1 5.83 1c0 2-3 3-3 3"/>
  <path d="M12 17h.01"/>
</symbol>

</svg>
